HIERARCHY
ROOT Hips
{
  OFFSET 0.0 0.0 0.0
  CHANNELS 6 XPOSITION YPOSITION ZPOSITION ZROTATION XROTATION YROTATION 
  JOINT LeftUpLeg
  {
    OFFSET 0.089458 -0.0866707 0.00101652
    CHANNELS 3 ZROTATION XROTATION YROTATION 
    JOINT LeftLeg
    {
      OFFSET 0.0 -0.444227 0.013727
      CHANNELS 3 ZROTATION XROTATION YROTATION 
      JOINT LeftFoot
      {
        OFFSET -0.00253549 -0.420924 -0.0146059
        CHANNELS 3 ZROTATION XROTATION YROTATION 
        End Site
        {
          OFFSET -0.0004 -0.0441509 0.084991
        }
      }
    }
  }
  JOINT Spine
  {
    OFFSET 0.0 0.118905 0.0
    CHANNELS 3 ZROTATION XROTATION YROTATION 
    JOINT Spine1
    {
      OFFSET 0.0 0.256574 0.00127663
      CHANNELS 3 ZROTATION XROTATION YROTATION 
      End Site
      {
        OFFSET -0.0029 0.2150836 0.02525291
      }
      JOINT RightArm
      {
        OFFSET -0.162727 -0.05365632 0.00102123
        CHANNELS 3 ZROTATION XROTATION YROTATION 
        JOINT RightForeArm
        {
          OFFSET -0.26364 0.00099144 -0.0142434
          CHANNELS 3 ZROTATION XROTATION YROTATION 
          End Site
          {
            OFFSET -0.220324 0.00085362 0.0102216
          }
        }
      }
      JOINT LeftArm
      {
        OFFSET 0.162727 -0.0536563199 0.00102123
        CHANNELS 3 ZROTATION XROTATION YROTATION 
        JOINT LeftForeArm
        {
          OFFSET 0.262597 0.00099144 -0.0142434
          CHANNELS 3 ZROTATION XROTATION YROTATION 
          End Site
          {
            OFFSET 0.220902 0.00085362 0.0102216
          }
        }
      }
    }
  }
  JOINT RightUpLeg
  {
    OFFSET -0.089458 -0.0866707 0.00101652
    CHANNELS 3 ZROTATION XROTATION YROTATION 
    JOINT RightLeg
    {
      OFFSET 0.0 -0.444227 0.013727
      CHANNELS 3 ZROTATION XROTATION YROTATION 
      JOINT RightFoot
      {
        OFFSET 0.00253549 -0.420924 -0.0146059
        CHANNELS 3 ZROTATION XROTATION YROTATION 
        End Site
        {
          OFFSET 0.0004 -0.0441509 0.084991
        }
      }
    }
  }
}
MOTION
Frames: 16
Frame Time: 0.033333
-1.38121 1.02847377988 -0.0054923 -5.56631986694 0.0392652000685 -91.5167006512 -2.33760983188 0.152137994791 1.11304997502 0.00469130984521 10.5428008188 17.4089005622 -0.73288602141 -10.3592002113 0.0397646976722 0.0909451027168 10.2445998823 0.311897013271 -1.37044010437 -1.89942993129 0.615756014468 78.2905106065 -12.7702894317 4.79578274789 7.20117943252 37.333298324 10.1584993714 -72.9329170517 -9.28880455422 -2.05109513558 -6.10492980186 38.987498424 -12.1471004105 0.196249997813 0.296633995076 -3.34916981258 0.116650986566 11.855100432 -10.7695998116 2.07599992629 -11.7696991617 -0.127694001731 
-1.38096 1.02847377988 -0.0055922 -5.57491992887 0.0264845004013 -91.5050005371 -2.34641992213 0.140910991404 1.10292998255 -0.000438429025735 10.5495003807 17.4082004678 -0.719233006868 -10.3373000635 0.0397619028975 0.284487997741 10.342499545 0.316435006964 -1.73623003159 -2.05220013213 0.692608022348 78.3852521605 -12.6424171914 4.5960018491 7.12378015573 37.0204995657 10.3387002523 -72.8313862897 -9.45360165096 -2.10802326821 -6.13801993396 39.3181000704 -12.0380999829 0.182126007043 0.287346005022 -3.36386987378 0.126360994265 11.8658998149 -10.7700002314 2.09723007522 -11.7659997605 -0.127692000699 
-1.38057 1.02847377988 -0.00575717 -5.56292995867 -0.0067780201818 -91.4756990256 -2.36433999064 0.117576997467 1.08768990952 -0.011583399689 10.5116995525 17.3972994859 -0.692852948663 -10.2831998426 0.0397550993888 0.314167010634 10.3261002608 0.290627003783 -1.88862990811 -2.15187009448 0.692967994662 78.5390065489 -12.8066781183 4.47941692327 7.12260024055 37.0421000389 10.3164995762 -72.7760207763 -9.67999083233 -2.07973497255 -6.16544954678 39.5798978062 -11.9381999285 0.148837999565 0.238361996048 -3.39383007169 0.141336997773 11.8955001472 -10.7728996467 2.08410010376 -11.7602000761 -0.127689999667 
-1.38022 1.02847377988 -0.00594989 -5.53736968325 -0.0446238003024 -91.4397995513 -2.371659819 0.0929642974005 1.08931997686 -0.0478620003251 10.4502005292 17.365600578 -0.675594981621 -10.2279999613 0.0397480991119 0.046502902737 10.1886999066 0.252211005003 -1.56314001798 -2.08740997074 0.584637992774 78.6186533848 -13.2841561526 4.55043509583 7.14824973532 37.7423002968 10.0829002764 -72.8439538378 -9.75820759738 -1.97504119262 -6.22642990257 39.3555021863 -11.8946002698 0.116240001277 0.17149799257 -3.42607987707 0.156061004654 11.9332002301 -10.7869997185 2.02357993196 -11.7576003354 -0.127687998635 
-1.37991 1.02847377988 -0.00615225 -5.52703987591 -0.0602517000103 -91.4109010209 -2.35276986363 0.0698453943906 1.11257997263 -0.0835704994452 10.4299003532 17.3184995934 -0.676436002024 -10.2074991485 0.039745601157 -0.190961990652 10.0978993718 0.228131013001 -1.2426600716 -1.97179002257 0.494068990689 78.6152382902 -13.6590985333 4.63169471016 7.0782799968 38.5944995844 9.95656995126 -72.9258819569 -9.68230199759 -1.91408324838 -6.28363999395 38.8959977948 -11.9134003654 0.11192700362 0.135616994488 -3.43884998294 0.168564999951 11.944598962 -10.8183998056 1.96676983353 -11.7516999057 -0.127685997603 
-1.3796 1.02847377988 -0.0063195 -5.54678040327 -0.0538501018756 -91.3981968691 -2.32611995959 0.0658462986213 1.13481992234 -0.0939591971625 10.4431005475 17.2874000346 -0.690064043687 -10.2104002714 0.0397459013118 -0.191080998694 10.1143994013 0.218021986184 -1.26379000885 -1.9183299185 0.487868032696 78.6008265911 -13.6988015692 4.62988300248 7.01042035985 38.9691013095 9.96877976817 -72.9366395048 -9.56304177204 -1.91619740537 -6.22076981019 38.6925981764 -12.029899487 0.130339993003 0.150603003156 -3.4316900237 0.174078990323 11.9192000498 -10.8440002084 1.95736999913 -11.7355994423 -0.127677993475 
-1.37929 1.02847377988 -0.00643172 -5.58933973887 -0.0554960974243 -91.4082987189 -2.32492019417 0.105273999162 1.13620004744 -0.0870844983711 10.4210006167 17.3019995639 -0.707487962981 -10.1943996995 0.0397439002798 -0.136817000028 10.1678003815 0.214291995866 -1.38120000019 -1.91629003981 0.509126035992 78.5977598361 -13.5393499493 4.62635905176 7.12253962262 38.792598976 9.88778994631 -72.9262507871 -9.52762894874 -1.91351335447 -6.07952021749 38.8049991845 -12.1718000821 0.133441005608 0.188973004881 -3.43507011356 0.172581004441 11.8972008643 -10.8271006129 1.98487004828 -11.7172006202 -0.127670002688 
-1.37901 1.02847377988 -0.0065108 -5.63156994474 -0.075793695415 -91.4435971365 -2.3463499127 0.165762994885 1.12716007863 -0.0868036068414 10.3582004424 17.3549010866 -0.720436987791 -10.1556998476 0.039739097803 -0.200498989126 10.1958997798 0.211546006356 -1.33565000222 -1.89833987579 0.50509296937 78.5787104385 -13.3938788728 4.67571570625 7.34152957468 38.4244005533 9.70364036233 -72.9481756944 -9.59143486842 -1.89918788646 -6.05735027722 38.899399229 -12.1728997426 0.108189002504 0.210165014143 -3.46229994335 0.172645997959 11.9090999076 -10.7619995186 2.0146498865 -11.708499813 -0.127666000624 
-1.37874 1.02847377988 -0.00655336 -5.65023983995 -0.0876771973744 -91.500697518 -2.35518006663 0.185692993295 1.13022000338 -0.0972309978472 10.3286001101 17.4153004494 -0.725708986696 -10.133199497 0.0397362996933 -0.262870982626 10.1966997657 0.209663995755 -1.2774199715 -1.85119001273 0.496423965209 78.5563210784 -13.3341326468 4.71029225826 7.42514987314 38.193598216 9.64845926402 -72.9625737331 -9.67110219489 -1.90992024808 -6.18296983577 38.8244003368 -12.0354003506 0.0877327993831 0.197642996218 -3.48035981729 0.176966999744 11.9313996215 -10.6851001262 2.02746011974 -11.7066001666 -0.127665000108 
-1.37844 1.02847377988 -0.00653696 -5.64635986561 -0.0749906012388 -91.5728994477 -2.33970990161 0.152373009327 1.14762001701 -0.107952000276 10.3584002254 17.4712994629 -0.728538979529 -10.1404992616 0.0397371968226 -0.217562002292 10.1890004349 0.209370004136 -1.34676997708 -1.81361009847 0.502128987435 78.5588892296 -13.3562129408 4.69144435124 7.31609992662 38.2286985582 9.7721796031 -72.938449505 -9.69556280986 -1.91390459625 -6.2406998753 38.7673989931 -11.9770005257 0.0976220928782 0.160678999605 -3.45999005875 0.172813004089 11.9428999525 -10.6282003816 2.01241982974 -11.7008004822 -0.1276620119 
-1.37811 1.02847377988 -0.00651047 -5.64755002607 -0.0603887040001 -91.6474987738 -2.32417997242 0.124449995381 1.16463999465 -0.118603006606 10.3860001661 17.5285996274 -0.728477988074 -10.1467002196 0.0397379972354 -0.193609009121 10.1883003405 0.211574007463 -1.36646995019 -1.79347000504 0.500098020014 78.5649817583 -13.4437819424 4.68166906988 7.17686993549 38.4681991414 9.88266047425 -72.92455007 -9.66967383158 -1.88127913046 -6.12777977284 38.8620005282 -12.090999798 0.119218990951 0.118632995405 -3.42422014462 0.152095999799 11.9688000298 -10.5902006241 1.96799990792 -11.6902999202 -0.12765699598 
-1.37776 1.02847377988 -0.00652772 -5.67846986556 -0.063736097003 -91.7023998343 -2.32274990157 0.144283010441 1.17439990809 -0.132570996922 10.3751000379 17.5757006119 -0.721330995521 -10.1323004733 0.0397361996417 -0.283591988979 10.2107998374 0.220006996572 -1.22657006691 -1.75270007228 0.481772995996 78.5520385498 -13.541210322 4.71744517387 7.11412013381 38.6797984019 9.89901963108 -72.9515088267 -9.62710211626 -1.87435908161 -6.014940352 38.9706995737 -12.2039002637 0.126726996355 0.0955116978268 -3.41154011187 0.12871499495 12.024400331 -10.5604005088 1.92925011032 -11.6823999526 -0.127653994432 
-1.37739 1.02844377988 -0.00660245 -5.73890978264 -0.0713784983849 -91.7239968925 -2.32289995228 0.187861991903 1.18295994939 -0.141146993116 10.3725002972 17.5910992734 -0.703186971516 -10.1170998873 0.0397342986613 -0.361279974662 10.2696000822 0.230194023616 -1.11956992419 -1.67941993317 0.471525044199 78.5497094553 -13.5909230001 4.74812424918 7.07339043513 38.6576002871 9.93899075188 -72.9784061116 -9.58099833936 -1.94724936633 -6.04810988504 38.9356982693 -12.1779993326 0.125007002644 0.10951700072 -3.4181399956 0.117056995955 12.0775998206 -10.5395001299 1.94531001949 -11.6823000611 -0.127653994432 
-1.37698 1.02837377988 -0.00664132 -5.80820034422 -0.0708408010807 -91.7317969685 -2.32503993593 0.219365012151 1.19439998264 -0.139158994521 10.4094003942 17.5871992354 -0.68984899945 -10.1161001184 0.0397341986097 -0.341369973231 10.3625990842 0.229244013671 -1.16177003454 -1.62208999332 0.480183002663 78.5758895704 -13.6183103512 4.73859997727 7.01323012892 38.494901766 10.036300457 -72.9817870553 -9.51658709417 -2.02819585917 -6.125980018 38.8003000143 -12.1206001303 0.12754000231 0.144208011762 -3.41316014737 0.106528999731 12.1112000825 -10.5272997045 2.01232015167 -11.6906994862 -0.12765699598 
-1.3766 1.02832377988 -0.00666096 -5.85217993229 -0.0761447964868 -91.754199989 -2.33271002492 0.231148996119 1.20277998442 -0.14080500341 10.4341000658 17.6016006893 -0.693590982619 -10.1109006369 0.0397335983001 -0.341587978996 10.4458001798 0.231554004993 -1.18148996461 -1.60883003482 0.483051041784 78.5937505151 -13.7117789286 4.73084258992 6.98326011262 38.498801804 10.0590996284 -73.0030904153 -9.47869405843 -2.03068823789 -6.11885997268 38.7273023676 -12.1451000189 0.125736992451 0.148517007355 -3.39007005255 0.0815780985798 12.1486995286 -10.5181993312 2.07491990263 -11.7009994115 -0.1276620119 
-1.37631 1.02831377988 -0.00667237 -5.83983009649 -0.0967087018191 -91.7785018021 -2.34857996946 0.216313998665 1.19938996943 -0.157082998389 10.3982996292 17.6329990689 -0.70038301878 -10.0831999509 0.0397300964942 -0.437531005937 10.4450001939 0.243911978316 -1.05950001127 -1.58878001451 0.468432996217 78.5823782501 -13.9158018018 4.76071698358 7.00392997259 38.7942996931 9.94923005922 -73.0667546085 -9.55202979955 -1.99336808427 -6.07793988247 38.816101657 -12.1683004639 0.115340003792 0.0947326026942 -3.36996005464 0.0548260985554 12.1860000454 -10.5179995482 2.09907977582 -11.7012999398 -0.12766199856 
